<svg width="61" height="60" viewBox="0 0 61 60" fill="none" xmlns="http://www.w3.org/2000/svg">
<rect opacity="0.04" x="0.980469" width="60" height="60" rx="8" fill="#274FED"/>
<path d="M39.8637 22.816C39.6741 22.816 39.4856 22.752 39.3347 22.62C37.0227 20.608 34.056 19.5 30.9803 19.5C27.9047 19.5 24.9379 20.608 22.626 22.621C22.3044 22.9 21.8078 22.877 21.5155 22.572C21.2233 22.266 21.2463 21.791 21.5669 21.512C24.1701 19.247 27.5129 18 30.9803 18C34.4478 18 37.7906 19.247 40.3938 21.512C40.7144 21.791 40.7374 22.265 40.4451 22.572C40.2901 22.734 40.0774 22.816 39.8637 22.816Z" fill="#274FED"/>
<path d="M41.1941 27.717C40.9417 27.717 40.6924 27.601 40.5415 27.385C38.3605 24.285 34.7862 22.434 30.9803 22.434C27.1745 22.434 23.6002 24.285 21.4192 27.385C21.1772 27.73 20.688 27.822 20.3286 27.59C19.9683 27.359 19.8719 26.893 20.1139 26.549C22.5872 23.034 26.6497 20.935 30.9803 20.935C35.311 20.935 39.3735 23.034 41.8468 26.55C42.0888 26.894 41.9934 27.36 41.632 27.591C41.4979 27.676 41.346 27.717 41.1941 27.717Z" fill="#274FED"/>
<path d="M28.4986 42C28.2965 42 28.0943 41.926 27.9403 41.778C27.7685 41.613 23.7427 37.69 23.7427 33.913C23.7427 29.993 26.9891 26.804 30.9803 26.804C34.9716 26.804 38.218 29.993 38.218 33.913C38.218 34.327 37.866 34.663 37.4323 34.663C36.9986 34.663 36.6466 34.327 36.6466 33.913C36.6466 30.82 34.1052 28.304 30.9803 28.304C27.8554 28.304 25.314 30.82 25.314 33.913C25.314 37.08 29.0193 40.686 29.057 40.722C29.3629 41.016 29.3608 41.491 29.0518 41.783C28.8988 41.928 28.6987 42 28.4986 42Z" fill="#274FED"/>
<path d="M33.462 42C31.5722 42 27.1913 38.568 26.767 34.746C26.6172 33.395 27.0677 32.013 27.9707 31.049C28.7563 30.211 29.8175 29.746 30.9583 29.74H30.9803C32.0929 29.74 33.1446 30.157 33.945 30.916C34.7809 31.709 35.2408 32.774 35.2408 33.914V34.403C35.2408 35.608 36.2234 36.588 37.4323 36.588C38.6412 36.588 39.6249 35.608 39.6249 34.403V34.232C39.6249 29.562 36.081 25.677 31.5565 25.389C29.1974 25.236 26.9346 26.014 25.1883 27.572C23.376 29.19 22.3368 31.502 22.3368 33.914C22.3368 35.898 23.0408 37.831 24.3188 39.357C24.5891 39.681 24.5346 40.152 24.1952 40.411C23.8569 40.67 23.3624 40.617 23.09 40.293C21.591 38.502 20.7644 36.236 20.7644 33.913C20.7644 31.087 21.9859 28.376 24.1135 26.476C26.1804 24.63 28.8601 23.712 31.6592 23.891C37.006 24.232 41.1952 28.774 41.1952 34.231V34.402C41.1952 36.434 39.5065 38.087 37.4313 38.087C35.356 38.087 33.6684 36.434 33.6684 34.402V33.913C33.6684 33.175 33.373 32.489 32.8366 31.979C32.3338 31.501 31.6749 31.239 30.9803 31.239C30.9751 31.239 30.9709 31.239 30.9657 31.239C30.0805 31.243 29.4844 31.682 29.1408 32.049C28.528 32.702 28.2242 33.652 28.3279 34.588C28.6746 37.706 32.4281 40.501 33.461 40.501C33.8947 40.501 34.2467 40.837 34.2467 41.251C34.2467 41.665 33.8957 42 33.462 42Z" fill="#274FED"/>
<path d="M36.3774 40.533C33.5657 40.533 30.1328 37.253 30.1328 33.424C30.1328 33.01 30.4848 32.674 30.9185 32.674C31.3522 32.674 31.7042 33.01 31.7042 33.424C31.7042 36.392 34.3179 39.033 36.3774 39.033C36.8111 39.033 37.1631 39.369 37.1631 39.783C37.1631 40.197 36.8111 40.533 36.3774 40.533Z" fill="#274FED"/>
</svg>
