<svg width="61" height="60" viewBox="0 0 61 60" fill="none" xmlns="http://www.w3.org/2000/svg">
<rect opacity="0.04" x="0.980469" width="60" height="60" rx="8" fill="#274FED"/>
<path d="M18.9805 20.75L40.9805 20.75L40.9805 19.25L18.9805 19.25L18.9805 20.75ZM42.2305 22L42.2305 38L43.7305 38L43.7305 22L42.2305 22ZM40.9804 39.25L18.9805 39.2496L18.9804 40.7496L40.9804 40.75L40.9804 39.25ZM17.7305 37.9996L17.7305 22L16.2305 22L16.2305 37.9996L17.7305 37.9996ZM18.9805 39.2496C18.2901 39.2496 17.7305 38.69 17.7305 37.9996L16.2305 37.9996C16.2305 39.5184 17.4617 40.7496 18.9804 40.7496L18.9805 39.2496ZM42.2305 38C42.2305 38.6903 41.6708 39.25 40.9804 39.25L40.9804 40.75C42.4992 40.75 43.7305 39.5188 43.7305 38L42.2305 38ZM40.9805 20.75C41.6708 20.75 42.2305 21.3096 42.2305 22L43.7305 22C43.7305 20.4812 42.4992 19.25 40.9805 19.25L40.9805 20.75ZM18.9805 19.25C17.4617 19.25 16.2305 20.4812 16.2305 22L17.7305 22C17.7305 21.3096 18.2902 20.75 18.9805 20.75L18.9805 19.25Z" fill="#274FED"/>
<path d="M21.9805 36L21.9805 30" stroke="#274FED" stroke-width="1.5" stroke-linecap="round" stroke-linejoin="round"/>
<path d="M25.9805 36V26" stroke="#274FED" stroke-width="1.5" stroke-linecap="round" stroke-linejoin="round"/>
<path d="M33.9805 36L33.9805 28" stroke="#274FED" stroke-width="1.5" stroke-linecap="round" stroke-linejoin="round"/>
<path d="M29.9805 36L29.9805 32" stroke="#274FED" stroke-width="1.5" stroke-linecap="round" stroke-linejoin="round"/>
<path d="M37.9805 36L37.9805 35" stroke="#274FED" stroke-width="1.5" stroke-linecap="round" stroke-linejoin="round"/>
</svg>
