<svg width="61" height="60" viewBox="0 0 61 60" fill="none" xmlns="http://www.w3.org/2000/svg">
<rect opacity="0.04" x="0.980469" width="60" height="60" rx="8" fill="#274FED"/>
<path d="M22.6035 23.543L28.2806 23.543M22.6035 30.3721L33.5607 30.3721M22.6035 37.12L24.4672 37.12M34.1074 23.543L39.1035 23.543M30.6035 37.1207L39.1035 37.1207M29.8535 37.2145C29.8535 38.5952 28.7342 39.7145 27.3535 39.7145C25.9728 39.7145 24.8535 38.5952 24.8535 37.2145C24.8535 35.8338 25.9728 34.7145 27.3535 34.7145C28.7342 34.7145 29.8535 35.8338 29.8535 37.2145ZM39.0568 30.3287C39.0568 31.7094 37.9376 32.8287 36.5568 32.8287C35.1761 32.8287 34.0568 31.7094 34.0568 30.3287C34.0568 28.948 35.1761 27.8287 36.5568 27.8287C37.9376 27.8287 39.0568 28.948 39.0568 30.3287ZM33.6801 23.5C33.6801 24.8807 32.5608 26 31.1801 26C29.7994 26 28.6801 24.8807 28.6801 23.5C28.6801 22.1193 29.7994 21 31.1801 21C32.5608 21 33.6801 22.1193 33.6801 23.5Z" stroke="#274FED" stroke-width="1.5" stroke-linecap="round"/>
</svg>
