<svg width="24" height="23" viewBox="0 0 24 23" fill="none" xmlns="http://www.w3.org/2000/svg">
<path d="M13.5303 6.53033C13.8232 6.23744 13.8232 5.76256 13.5303 5.46967L8.75736 0.696699C8.46447 0.403806 7.98959 0.403806 7.6967 0.696699C7.40381 0.989593 7.40381 1.46447 7.6967 1.75736L11.9393 6L7.6967 10.2426C7.40381 10.5355 7.40381 11.0104 7.6967 11.3033C7.98959 11.5962 8.46447 11.5962 8.75736 11.3033L13.5303 6.53033ZM7.26087 17.75C7.67508 17.75 8.01087 17.4142 8.01087 17C8.01087 16.5858 7.67508 16.25 7.26087 16.25V17.75ZM10.4697 16.4697C10.1768 16.7626 10.1768 17.2374 10.4697 17.5303L15.2426 22.3033C15.5355 22.5962 16.0104 22.5962 16.3033 22.3033C16.5962 22.0104 16.5962 21.5355 16.3033 21.2426L12.0607 17L16.3033 12.7574C16.5962 12.4645 16.5962 11.9896 16.3033 11.6967C16.0104 11.4038 15.5355 11.4038 15.2426 11.6967L10.4697 16.4697ZM16.7391 5.25C16.3249 5.25 15.9891 5.58579 15.9891 6C15.9891 6.41421 16.3249 6.75 16.7391 6.75V5.25ZM7 6.75H13V5.25H7V6.75ZM7.26087 16.25H7V17.75H7.26087V16.25ZM0.25 11.5C0.25 15.0119 3.33484 17.75 7 17.75V16.25C4.03774 16.25 1.75 14.0633 1.75 11.5H0.25ZM1.75 11.5C1.75 8.93674 4.03774 6.75 7 6.75V5.25C3.33484 5.25 0.25 7.98813 0.25 11.5H1.75ZM17 16.25H11V17.75H17V16.25ZM16.7391 6.75H17V5.25H16.7391V6.75ZM23.75 11.5C23.75 7.98813 20.6652 5.25 17 5.25V6.75C19.9623 6.75 22.25 8.93674 22.25 11.5H23.75ZM22.25 11.5C22.25 14.0633 19.9623 16.25 17 16.25V17.75C20.6652 17.75 23.75 15.0119 23.75 11.5H22.25Z" fill="#274FED"/>
</svg>
