<svg width="27" height="21" viewBox="0 0 27 21" fill="none" xmlns="http://www.w3.org/2000/svg">
<path d="M23.9722 14.3352C23.9722 13.921 23.6364 13.5852 23.2222 13.5852C22.808 13.5852 22.4722 13.921 22.4722 14.3352H23.9722ZM12.9048 4.56481C13.319 4.56481 13.6548 4.22903 13.6548 3.81481C13.6548 3.4006 13.319 3.06481 12.9048 3.06481V4.56481ZM1.69444 9.39815C1.28023 9.39815 0.944444 9.73393 0.944444 10.1481C0.944444 10.5624 1.28023 10.8981 1.69444 10.8981L1.69444 9.39815ZM12.8056 10.8981C13.2198 10.8981 13.5556 10.5624 13.5556 10.1481C13.5556 9.73394 13.2198 9.39815 12.8056 9.39815V10.8981ZM18.3611 5.87963C17.9469 5.87963 17.6111 6.21542 17.6111 6.62963C17.6111 7.04384 17.9469 7.37963 18.3611 7.37963V5.87963ZM22.5278 7.37963C22.942 7.37963 23.2778 7.04384 23.2778 6.62963C23.2778 6.21542 22.942 5.87963 22.5278 5.87963V7.37963ZM21.1944 4.51852C21.1944 4.10431 20.8587 3.76852 20.4444 3.76852C20.0302 3.76852 19.6944 4.10431 19.6944 4.51852H21.1944ZM19.6944 8.74074C19.6944 9.15495 20.0302 9.49074 20.4444 9.49074C20.8587 9.49074 21.1944 9.15495 21.1944 8.74074H19.6944ZM26 6.62963H25.25H26ZM22.4722 14.3352V17.1852H23.9722V14.3352H22.4722ZM20.4444 19.25H3.77778V20.75H20.4444V19.25ZM1.75 17.1852V6.62963H0.25V17.1852H1.75ZM3.77778 4.56481H12.9048V3.06481H3.77778V4.56481ZM3.77778 19.25C2.6672 19.25 1.75 18.3349 1.75 17.1852H0.25C0.25 19.1446 1.82011 20.75 3.77778 20.75V19.25ZM22.4722 17.1852C22.4722 18.3349 21.555 19.25 20.4444 19.25V20.75C22.4021 20.75 23.9722 19.1446 23.9722 17.1852H22.4722ZM1.75 6.62963C1.75 5.47987 2.6672 4.56481 3.77778 4.56481V3.06481C1.82011 3.06481 0.25 4.67023 0.25 6.62963H1.75ZM1.69444 10.8981H12.8056V9.39815H1.69444L1.69444 10.8981ZM18.3611 7.37963H20.4444V5.87963H18.3611V7.37963ZM20.4444 7.37963H22.5278V5.87963H20.4444V7.37963ZM19.6944 4.51852V6.62963H21.1944V4.51852H19.6944ZM19.6944 6.62963V8.74074H21.1944V6.62963H19.6944ZM25.25 6.62963C25.25 7.2718 25.1252 7.90746 24.8829 8.50022L26.2713 9.06777C26.5874 8.2945 26.75 7.46605 26.75 6.62963H25.25ZM24.8829 8.50022C24.6406 9.09296 24.2857 9.6309 23.839 10.0836L24.9066 11.1372C25.4917 10.5443 25.9553 9.84107 26.2713 9.06777L24.8829 8.50022ZM23.839 10.0836C23.3923 10.5362 22.8625 10.8948 22.2802 11.1392L22.8607 12.5223C23.6265 12.2009 24.3216 11.7301 24.9066 11.1372L23.839 10.0836ZM22.2802 11.1392C21.6979 11.3836 21.0741 11.5093 20.4444 11.5093L20.4444 13.0093C21.2739 13.0093 22.095 12.8437 22.8607 12.5223L22.2802 11.1392ZM20.4444 11.5093C19.8148 11.5093 19.191 11.3836 18.6087 11.1392L18.0282 12.5223C18.7939 12.8437 19.615 13.0093 20.4444 13.0093L20.4444 11.5093ZM18.6087 11.1392C18.0264 10.8948 17.4966 10.5362 17.0499 10.0836L15.9822 11.1372C16.5673 11.7301 17.2624 12.2009 18.0282 12.5223L18.6087 11.1392ZM17.0499 10.0836C16.6032 9.6309 16.2483 9.09296 16.006 8.50022L14.6175 9.06777C14.9336 9.84107 15.3972 10.5443 15.9822 11.1372L17.0499 10.0836ZM16.006 8.50022C15.7637 7.90746 15.6389 7.2718 15.6389 6.62963H14.1389C14.1389 7.46605 14.3015 8.2945 14.6175 9.06777L16.006 8.50022ZM15.6389 6.62963C15.6389 5.98746 15.7637 5.3518 16.006 4.75904L14.6175 4.19148C14.3015 4.96476 14.1389 5.79321 14.1389 6.62963H15.6389ZM16.006 4.75904C16.2483 4.1663 16.6032 3.62836 17.0499 3.17569L15.9822 2.12207C15.3972 2.71492 14.9336 3.41819 14.6175 4.19148L16.006 4.75904ZM17.0499 3.17569C17.4966 2.72303 18.0264 2.36451 18.6087 2.12008L18.0282 0.736978C17.2624 1.05838 16.5673 1.52921 15.9822 2.12207L17.0499 3.17569ZM18.6087 2.12008C19.191 1.87567 19.8148 1.75 20.4444 1.75V0.25C19.615 0.25 18.7939 0.415562 18.0282 0.736978L18.6087 2.12008ZM20.4444 1.75C21.0741 1.75 21.6979 1.87567 22.2802 2.12008L22.8607 0.736979C22.095 0.415563 21.2739 0.25 20.4444 0.25V1.75ZM22.2802 2.12008C22.8625 2.36451 23.3923 2.72303 23.839 3.17569L24.9066 2.12207C24.3216 1.52921 23.6265 1.05839 22.8607 0.736979L22.2802 2.12008ZM23.839 3.17569C24.2857 3.62836 24.6406 4.1663 24.8829 4.75904L26.2713 4.19148C25.9553 3.41819 25.4917 2.71492 24.9066 2.12207L23.839 3.17569ZM24.8829 4.75904C25.1252 5.3518 25.25 5.98746 25.25 6.62963H26.75C26.75 5.79321 26.5874 4.96476 26.2713 4.19148L24.8829 4.75904Z" fill="#274FED"/>
</svg>
