<svg width="32" height="32" viewBox="0 0 32 32" fill="none" xmlns="http://www.w3.org/2000/svg">
<g opacity="0.5" filter="url(#filter0_d)">
<path d="M28 12C28 5.3736 22.6264 0 16 0C9.3736 0 4 5.3736 4 12C4 18.6264 9.3736 24 16 24C16.0705 24 16.1406 23.9985 16.2109 23.9973V14.6558H13.6328V11.6512H16.2109V9.44019C16.2109 6.87598 17.7763 5.48035 20.0637 5.48035C21.159 5.48035 22.1005 5.56201 22.375 5.59845V8.27838H20.7977C19.5533 8.27838 19.3124 8.86981 19.3124 9.73755V11.6512H22.2878L21.9 14.6558H19.3124V23.5364C24.3282 22.0984 28 17.4774 28 12Z" fill="white"/>
</g>
<defs>
<filter id="filter0_d" x="0" y="0" width="32" height="32" filterUnits="userSpaceOnUse" color-interpolation-filters="sRGB">
<feFlood flood-opacity="0" result="BackgroundImageFix"/>
<feColorMatrix in="SourceAlpha" type="matrix" values="0 0 0 0 0 0 0 0 0 0 0 0 0 0 0 0 0 0 127 0"/>
<feOffset dy="4"/>
<feGaussianBlur stdDeviation="2"/>
<feColorMatrix type="matrix" values="0 0 0 0 0 0 0 0 0 0 0 0 0 0 0 0 0 0 0.25 0"/>
<feBlend mode="normal" in2="BackgroundImageFix" result="effect1_dropShadow"/>
<feBlend mode="normal" in="SourceGraphic" in2="effect1_dropShadow" result="shape"/>
</filter>
</defs>
</svg>
