<svg width="61" height="60" viewBox="0 0 61 60" fill="none" xmlns="http://www.w3.org/2000/svg">
<rect opacity="0.04" x="0.980469" width="60" height="60" rx="8" fill="#274FED"/>
<path d="M36.4501 31.5303C36.743 31.8232 37.2179 31.8232 37.5108 31.5303L42.2838 26.7574C42.5767 26.4645 42.5767 25.9896 42.2838 25.6967C41.9909 25.4038 41.516 25.4038 41.2231 25.6967L36.9805 29.9393L32.7378 25.6967C32.4449 25.4038 31.9701 25.4038 31.6772 25.6967C31.3843 25.9896 31.3843 26.4645 31.6772 26.7574L36.4501 31.5303ZM24.2305 25.2609C24.2305 25.6751 24.5663 26.0109 24.9805 26.0109C25.3947 26.0109 25.7305 25.6751 25.7305 25.2609L24.2305 25.2609ZM25.5108 28.4697C25.2179 28.1768 24.743 28.1768 24.4501 28.4697L19.6772 33.2426C19.3843 33.5355 19.3843 34.0104 19.6772 34.3033C19.9701 34.5962 20.4449 34.5962 20.7378 34.3033L24.9805 30.0607L29.2231 34.3033C29.516 34.5962 29.9909 34.5962 30.2838 34.3033C30.5767 34.0104 30.5767 33.5355 30.2838 33.2426L25.5108 28.4697ZM37.7305 34.7391C37.7305 34.3249 37.3947 33.9891 36.9805 33.9891C36.5663 33.9891 36.2305 34.3249 36.2305 34.7391L37.7305 34.7391ZM36.2305 25L36.2305 31L37.7305 31L37.7305 25L36.2305 25ZM25.7305 25.2609L25.7305 25L24.2305 25L24.2305 25.2609L25.7305 25.2609ZM30.9805 18.25C27.2525 18.25 24.2305 21.2721 24.2305 25L25.7305 25C25.7305 22.1005 28.081 19.75 30.9805 19.75L30.9805 18.25ZM30.9805 19.75C33.88 19.75 36.2305 22.1005 36.2305 25L37.7305 25C37.7305 21.2721 34.7084 18.25 30.9805 18.25L30.9805 19.75ZM25.7305 35L25.7305 29L24.2305 29L24.2305 35L25.7305 35ZM36.2305 34.7391L36.2305 35L37.7305 35L37.7305 34.7391L36.2305 34.7391ZM30.9805 41.75C34.7084 41.75 37.7305 38.7279 37.7305 35L36.2305 35C36.2305 37.8995 33.88 40.25 30.9805 40.25L30.9805 41.75ZM30.9805 40.25C28.081 40.25 25.7305 37.8995 25.7305 35L24.2305 35C24.2305 38.7279 27.2525 41.75 30.9805 41.75L30.9805 40.25Z" fill="#274FED"/>
</svg>
