<svg width="60" height="60" viewBox="0 0 60 60" fill="none" xmlns="http://www.w3.org/2000/svg">
<rect width="60" height="60" rx="8" fill="#F5F7FE"/>
<path d="M42.9722 32.3352C42.9722 31.921 42.6364 31.5852 42.2222 31.5852C41.808 31.5852 41.4722 31.921 41.4722 32.3352H42.9722ZM31.9048 22.5648C32.319 22.5648 32.6548 22.229 32.6548 21.8148C32.6548 21.4006 32.319 21.0648 31.9048 21.0648V22.5648ZM20.6944 27.3981C20.2802 27.3981 19.9444 27.7339 19.9444 28.1481C19.9444 28.5624 20.2802 28.8981 20.6944 28.8981L20.6944 27.3981ZM31.8056 28.8981C32.2198 28.8981 32.5556 28.5624 32.5556 28.1481C32.5556 27.7339 32.2198 27.3981 31.8056 27.3981V28.8981ZM37.3611 23.8796C36.9469 23.8796 36.6111 24.2154 36.6111 24.6296C36.6111 25.0438 36.9469 25.3796 37.3611 25.3796V23.8796ZM41.5278 25.3796C41.942 25.3796 42.2778 25.0438 42.2778 24.6296C42.2778 24.2154 41.942 23.8796 41.5278 23.8796V25.3796ZM40.1944 22.5185C40.1944 22.1043 39.8587 21.7685 39.4444 21.7685C39.0302 21.7685 38.6944 22.1043 38.6944 22.5185H40.1944ZM38.6944 26.7407C38.6944 27.155 39.0302 27.4907 39.4444 27.4907C39.8587 27.4907 40.1944 27.155 40.1944 26.7407H38.6944ZM45 24.6296H44.25H45ZM41.4722 32.3352V35.1852H42.9722V32.3352H41.4722ZM39.4444 37.25H22.7778V38.75H39.4444V37.25ZM20.75 35.1852V24.6296H19.25V35.1852H20.75ZM22.7778 22.5648H31.9048V21.0648H22.7778V22.5648ZM22.7778 37.25C21.6672 37.25 20.75 36.3349 20.75 35.1852H19.25C19.25 37.1446 20.8201 38.75 22.7778 38.75V37.25ZM41.4722 35.1852C41.4722 36.3349 40.555 37.25 39.4444 37.25V38.75C41.4021 38.75 42.9722 37.1446 42.9722 35.1852H41.4722ZM20.75 24.6296C20.75 23.4799 21.6672 22.5648 22.7778 22.5648V21.0648C20.8201 21.0648 19.25 22.6702 19.25 24.6296H20.75ZM20.6944 28.8981H31.8056V27.3981H20.6944L20.6944 28.8981ZM37.3611 25.3796H39.4444V23.8796H37.3611V25.3796ZM39.4444 25.3796H41.5278V23.8796H39.4444V25.3796ZM38.6944 22.5185V24.6296H40.1944V22.5185H38.6944ZM38.6944 24.6296V26.7407H40.1944V24.6296H38.6944ZM44.25 24.6296C44.25 25.2718 44.1252 25.9075 43.8829 26.5002L45.2713 27.0678C45.5874 26.2945 45.75 25.466 45.75 24.6296H44.25ZM43.8829 26.5002C43.6406 27.093 43.2857 27.6309 42.839 28.0836L43.9066 29.1372C44.4917 28.5443 44.9553 27.8411 45.2713 27.0678L43.8829 26.5002ZM42.839 28.0836C42.3923 28.5362 41.8625 28.8948 41.2802 29.1392L41.8607 30.5223C42.6265 30.2009 43.3216 29.7301 43.9066 29.1372L42.839 28.0836ZM41.2802 29.1392C40.6979 29.3836 40.0741 29.5093 39.4444 29.5093L39.4444 31.0093C40.2739 31.0093 41.095 30.8437 41.8607 30.5223L41.2802 29.1392ZM39.4444 29.5093C38.8148 29.5093 38.191 29.3836 37.6087 29.1392L37.0282 30.5223C37.7939 30.8437 38.615 31.0093 39.4444 31.0093L39.4444 29.5093ZM37.6087 29.1392C37.0264 28.8948 36.4966 28.5362 36.0499 28.0836L34.9822 29.1372C35.5673 29.7301 36.2624 30.2009 37.0282 30.5223L37.6087 29.1392ZM36.0499 28.0836C35.6032 27.6309 35.2483 27.093 35.006 26.5002L33.6175 27.0678C33.9336 27.8411 34.3972 28.5443 34.9822 29.1372L36.0499 28.0836ZM35.006 26.5002C34.7637 25.9075 34.6389 25.2718 34.6389 24.6296H33.1389C33.1389 25.466 33.3015 26.2945 33.6175 27.0678L35.006 26.5002ZM34.6389 24.6296C34.6389 23.9875 34.7637 23.3518 35.006 22.759L33.6175 22.1915C33.3015 22.9648 33.1389 23.7932 33.1389 24.6296H34.6389ZM35.006 22.759C35.2483 22.1663 35.6032 21.6284 36.0499 21.1757L34.9822 20.1221C34.3972 20.7149 33.9336 21.4182 33.6175 22.1915L35.006 22.759ZM36.0499 21.1757C36.4966 20.723 37.0264 20.3645 37.6087 20.1201L37.0282 18.737C36.2624 19.0584 35.5673 19.5292 34.9822 20.1221L36.0499 21.1757ZM37.6087 20.1201C38.191 19.8757 38.8148 19.75 39.4444 19.75V18.25C38.615 18.25 37.7939 18.4156 37.0282 18.737L37.6087 20.1201ZM39.4444 19.75C40.0741 19.75 40.6979 19.8757 41.2802 20.1201L41.8607 18.737C41.095 18.4156 40.2739 18.25 39.4444 18.25V19.75ZM41.2802 20.1201C41.8625 20.3645 42.3923 20.723 42.839 21.1757L43.9066 20.1221C43.3216 19.5292 42.6265 19.0584 41.8607 18.737L41.2802 20.1201ZM42.839 21.1757C43.2857 21.6284 43.6406 22.1663 43.8829 22.759L45.2713 22.1915C44.9553 21.4182 44.4917 20.7149 43.9066 20.1221L42.839 21.1757ZM43.8829 22.759C44.1252 23.3518 44.25 23.9875 44.25 24.6296H45.75C45.75 23.7932 45.5874 22.9648 45.2713 22.1915L43.8829 22.759Z" fill="#274FED"/>
</svg>
