<svg width="60" height="60" viewBox="0 0 60 60" fill="none" xmlns="http://www.w3.org/2000/svg">
<rect width="60" height="60" rx="8" fill="#F5F7FE"/>
<path d="M19 21V37.3929C19 37.5539 19.0828 37.7083 19.2301 37.8222C19.3775 37.936 19.5773 38 19.7857 38H41M23.5517 28.3913H25.069C25.4879 28.3913 25.8276 28.7015 25.8276 29.0842V34.3505C25.8276 34.7332 25.4879 35.0435 25.069 35.0435H23.5517C23.1327 35.0435 22.7931 34.7332 22.7931 34.3505V29.0842C22.7931 28.7015 23.1327 28.3913 23.5517 28.3913ZM29.6207 26.1739H31.1379C31.5569 26.1739 31.8966 26.5048 31.8966 26.913V34.3043C31.8966 34.7126 31.5569 35.0435 31.1379 35.0435H29.6207C29.2017 35.0435 28.8621 34.7126 28.8621 34.3043V26.913C28.8621 26.5048 29.2017 26.1739 29.6207 26.1739ZM35.6897 23.9565H37.2069C37.6259 23.9565 37.9655 24.2831 37.9655 24.6859V34.3141C37.9655 34.7169 37.6259 35.0435 37.2069 35.0435H35.6897C35.2707 35.0435 34.931 34.7169 34.931 34.3141V24.6859C34.931 24.2831 35.2707 23.9565 35.6897 23.9565Z" stroke="#274FED" stroke-width="1.5" stroke-linecap="round" stroke-linejoin="round"/>
</svg>
