<svg width="60" height="60" viewBox="0 0 60 60" fill="none" xmlns="http://www.w3.org/2000/svg">
<rect width="60" height="60" rx="8" fill="#F5F7FE"/>
<path d="M27.1111 25.725H32.8889M27.1111 29.325H32.8889M27.1111 32.925H30.2222M34.5255 36.854L36.4745 38.0578C37.1407 38.4693 38 37.99 38 37.207V22C38 21.4477 37.5523 21 37 21H23C22.4477 21 22 21.4477 22 22V37.207C22 37.99 22.8593 38.4693 23.5255 38.0578L25.4745 36.854C25.7966 36.655 26.2034 36.655 26.5255 36.854L29.4745 38.6754C29.7966 38.8744 30.2034 38.8744 30.5255 38.6754L33.4745 36.854C33.7966 36.655 34.2034 36.655 34.5255 36.854Z" stroke="#274FED" stroke-width="1.5" stroke-linecap="round" stroke-linejoin="round"/>
</svg>
