<svg width="60" height="60" viewBox="0 0 60 60" fill="none" xmlns="http://www.w3.org/2000/svg">
<rect width="60" height="60" rx="8" fill="#F5F7FE"/>
<path d="M31.5303 25.5303C31.8232 25.2374 31.8232 24.7626 31.5303 24.4697L26.7574 19.6967C26.4645 19.4038 25.9896 19.4038 25.6967 19.6967C25.4038 19.9896 25.4038 20.4645 25.6967 20.7574L29.9393 25L25.6967 29.2426C25.4038 29.5355 25.4038 30.0104 25.6967 30.3033C25.9896 30.5962 26.4645 30.5962 26.7574 30.3033L31.5303 25.5303ZM25.2609 36.75C25.6751 36.75 26.0109 36.4142 26.0109 36C26.0109 35.5858 25.6751 35.25 25.2609 35.25V36.75ZM28.4697 35.4697C28.1768 35.7626 28.1768 36.2374 28.4697 36.5303L33.2426 41.3033C33.5355 41.5962 34.0104 41.5962 34.3033 41.3033C34.5962 41.0104 34.5962 40.5355 34.3033 40.2426L30.0607 36L34.3033 31.7574C34.5962 31.4645 34.5962 30.9896 34.3033 30.6967C34.0104 30.4038 33.5355 30.4038 33.2426 30.6967L28.4697 35.4697ZM34.7391 24.25C34.3249 24.25 33.9891 24.5858 33.9891 25C33.9891 25.4142 34.3249 25.75 34.7391 25.75V24.25ZM25 25.75H31V24.25H25V25.75ZM25.2609 35.25H25V36.75H25.2609V35.25ZM18.25 30.5C18.25 34.0119 21.3348 36.75 25 36.75V35.25C22.0377 35.25 19.75 33.0633 19.75 30.5H18.25ZM19.75 30.5C19.75 27.9367 22.0377 25.75 25 25.75V24.25C21.3348 24.25 18.25 26.9881 18.25 30.5H19.75ZM35 35.25H29V36.75H35V35.25ZM34.7391 25.75H35V24.25H34.7391V25.75ZM41.75 30.5C41.75 26.9881 38.6652 24.25 35 24.25V25.75C37.9623 25.75 40.25 27.9367 40.25 30.5H41.75ZM40.25 30.5C40.25 33.0633 37.9623 35.25 35 35.25V36.75C38.6652 36.75 41.75 34.0119 41.75 30.5H40.25Z" fill="#274FED"/>
</svg>
