<svg width="503" height="480" viewBox="0 0 503 480" fill="none" xmlns="http://www.w3.org/2000/svg">
<g filter="url(#filter0_d)">
<rect x="44" y="44" width="415" height="392" rx="4" fill="white"/>
</g>
<path d="M135.215 139.464L116.495 117.528H111.983V153H118.991V131.256L137.375 153H142.223V117.528H135.215V139.464ZM160.7 130.152C159.02 130.152 157.436 130.44 155.948 131.016L156.716 124.056H170.204V117.528H151.436L149.516 135.288L153.644 138.6C155.324 137.016 157.244 136.248 159.5 136.248C162.956 136.248 165.5 138.504 165.5 141.576C165.5 144.648 163.052 147.048 159.068 147.048C156.236 147.048 153.356 146.04 150.332 143.976L147.5 149.64C151.148 152.28 155.132 153.576 159.404 153.576C163.388 153.576 166.556 152.424 169.004 150.168C171.452 147.912 172.652 145.032 172.652 141.576C172.652 138.168 171.5 135.432 169.196 133.32C166.892 131.208 164.06 130.152 160.7 130.152ZM180.567 146.04C178.311 146.04 176.487 147.72 176.487 149.976C176.487 151.896 178.071 153.528 179.943 153.528H180.087C179.511 154.632 177.975 156.12 175.431 158.04L177.447 160.728C182.391 157.464 184.839 154.104 184.839 150.648C184.839 148.008 183.015 146.04 180.567 146.04ZM202.84 153.576C212.728 153.576 217.192 145.032 217.192 135.24C217.192 125.448 212.728 116.904 202.84 116.904C196.504 116.904 191.944 120.744 189.976 126.12C188.968 128.808 188.488 131.832 188.488 135.24C188.488 142.008 190.36 147.528 194.776 150.984C196.984 152.712 199.672 153.576 202.84 153.576ZM210.136 135.24C210.136 142.152 207.688 146.904 202.84 146.904C197.992 146.904 195.592 142.152 195.592 135.24C195.592 131.832 196.216 129 197.416 126.84C198.616 124.68 200.44 123.576 202.84 123.576C205.288 123.576 207.112 124.68 208.312 126.84C209.512 129 210.136 131.832 210.136 135.24ZM235.887 153.576C245.775 153.576 250.239 145.032 250.239 135.24C250.239 125.448 245.775 116.904 235.887 116.904C229.551 116.904 224.991 120.744 223.023 126.12C222.015 128.808 221.535 131.832 221.535 135.24C221.535 142.008 223.407 147.528 227.823 150.984C230.031 152.712 232.719 153.576 235.887 153.576ZM243.183 135.24C243.183 142.152 240.735 146.904 235.887 146.904C231.039 146.904 228.639 142.152 228.639 135.24C228.639 131.832 229.263 129 230.463 126.84C231.663 124.68 233.487 123.576 235.887 123.576C238.335 123.576 240.159 124.68 241.359 126.84C242.559 129 243.183 131.832 243.183 135.24ZM268.934 153.576C278.822 153.576 283.286 145.032 283.286 135.24C283.286 125.448 278.822 116.904 268.934 116.904C262.598 116.904 258.038 120.744 256.07 126.12C255.062 128.808 254.582 131.832 254.582 135.24C254.582 142.008 256.454 147.528 260.87 150.984C263.078 152.712 265.766 153.576 268.934 153.576ZM276.23 135.24C276.23 142.152 273.782 146.904 268.934 146.904C264.086 146.904 261.686 142.152 261.686 135.24C261.686 131.832 262.31 129 263.51 126.84C264.71 124.68 266.534 123.576 268.934 123.576C271.382 123.576 273.206 124.68 274.406 126.84C275.606 129 276.23 131.832 276.23 135.24ZM291.051 146.04C288.795 146.04 286.971 147.72 286.971 149.976C286.971 151.896 288.555 153.528 290.427 153.528H290.571C289.995 154.632 288.459 156.12 285.915 158.04L287.931 160.728C292.875 157.464 295.323 154.104 295.323 150.648C295.323 148.008 293.499 146.04 291.051 146.04ZM313.325 153.576C323.213 153.576 327.677 145.032 327.677 135.24C327.677 125.448 323.213 116.904 313.325 116.904C306.989 116.904 302.429 120.744 300.461 126.12C299.453 128.808 298.973 131.832 298.973 135.24C298.973 142.008 300.845 147.528 305.261 150.984C307.469 152.712 310.157 153.576 313.325 153.576ZM320.621 135.24C320.621 142.152 318.173 146.904 313.325 146.904C308.477 146.904 306.077 142.152 306.077 135.24C306.077 131.832 306.701 129 307.901 126.84C309.101 124.68 310.924 123.576 313.325 123.576C315.773 123.576 317.597 124.68 318.797 126.84C319.997 129 320.621 131.832 320.621 135.24ZM346.371 153.576C356.259 153.576 360.723 145.032 360.723 135.24C360.723 125.448 356.259 116.904 346.371 116.904C340.035 116.904 335.475 120.744 333.507 126.12C332.499 128.808 332.019 131.832 332.019 135.24C332.019 142.008 333.891 147.528 338.307 150.984C340.515 152.712 343.203 153.576 346.371 153.576ZM353.667 135.24C353.667 142.152 351.219 146.904 346.371 146.904C341.523 146.904 339.123 142.152 339.123 135.24C339.123 131.832 339.747 129 340.947 126.84C342.147 124.68 343.971 123.576 346.371 123.576C348.819 123.576 350.643 124.68 351.843 126.84C353.043 129 353.667 131.832 353.667 135.24ZM379.418 153.576C389.306 153.576 393.77 145.032 393.77 135.24C393.77 125.448 389.306 116.904 379.418 116.904C373.082 116.904 368.522 120.744 366.554 126.12C365.546 128.808 365.066 131.832 365.066 135.24C365.066 142.008 366.938 147.528 371.354 150.984C373.562 152.712 376.25 153.576 379.418 153.576ZM386.714 135.24C386.714 142.152 384.266 146.904 379.418 146.904C374.57 146.904 372.17 142.152 372.17 135.24C372.17 131.832 372.794 129 373.994 126.84C375.194 124.68 377.018 123.576 379.418 123.576C381.866 123.576 383.69 124.68 384.89 126.84C386.09 129 386.714 131.832 386.714 135.24Z" fill="#242D4F"/>
<path d="M213.612 184V182.642H208.054V173.654H206.654V184H213.612ZM218.172 184.182C219.306 184.182 220.244 183.804 220.986 183.048C221.728 182.278 222.106 181.34 222.106 180.234C222.106 179.142 221.728 178.218 220.986 177.448C220.244 176.678 219.306 176.3 218.172 176.3C217.024 176.3 216.072 176.678 215.33 177.448C214.588 178.204 214.224 179.128 214.224 180.234C214.224 181.34 214.588 182.278 215.33 183.048C216.072 183.804 217.024 184.182 218.172 184.182ZM220.762 180.234C220.762 180.976 220.51 181.62 220.006 182.152C219.502 182.684 218.886 182.95 218.172 182.95C217.458 182.95 216.842 182.684 216.338 182.152C215.834 181.62 215.582 180.976 215.582 180.234C215.582 179.492 215.834 178.862 216.338 178.344C216.842 177.812 217.458 177.546 218.172 177.546C218.886 177.546 219.502 177.812 220.006 178.344C220.51 178.862 220.762 179.492 220.762 180.234ZM229.646 177.588C228.946 176.734 228.064 176.314 227 176.314C225.922 176.314 225.026 176.678 224.312 177.42C223.598 178.148 223.248 179.072 223.248 180.192C223.248 181.326 223.598 182.264 224.312 183.034C225.026 183.804 225.922 184.182 227 184.182C228.092 184.182 228.974 183.762 229.646 182.936V184H230.934V176.496H229.646V177.588ZM229.73 180.234C229.73 181.004 229.492 181.648 229.016 182.166C228.54 182.684 227.924 182.95 227.154 182.95C226.384 182.95 225.768 182.684 225.306 182.166C224.844 181.648 224.606 181.004 224.606 180.248C224.606 179.492 224.844 178.848 225.306 178.33C225.768 177.812 226.384 177.546 227.154 177.546C227.924 177.546 228.54 177.812 229.016 178.33C229.492 178.848 229.73 179.492 229.73 180.234ZM234.364 184V179.842C234.364 179.17 234.56 178.624 234.938 178.19C235.33 177.756 235.834 177.546 236.436 177.546C237.57 177.546 238.354 178.372 238.354 179.828V184H239.684V179.45C239.684 178.428 239.404 177.658 238.83 177.112C238.256 176.566 237.556 176.3 236.716 176.3C235.61 176.3 234.812 176.72 234.336 177.56V176.496H233.02V184H234.364ZM252.942 184L248.798 173.654H248.042L243.856 184H245.382L246.432 181.312H250.366L251.416 184H252.942ZM249.89 179.996H246.908L248.406 176.09L249.89 179.996ZM262.823 176.3C261.647 176.3 260.597 176.846 260.093 177.7C259.687 176.818 258.749 176.3 257.741 176.3C256.747 176.286 255.921 176.776 255.473 177.602V176.496H254.157V184H255.501V179.8C255.501 178.442 256.341 177.546 257.517 177.546C258.637 177.546 259.337 178.372 259.337 179.772V184H260.667V179.772C260.667 178.442 261.493 177.546 262.669 177.546C263.789 177.546 264.475 178.344 264.475 179.744V184H265.819V179.534C265.819 178.54 265.553 177.756 265.007 177.182C264.461 176.594 263.733 176.3 262.823 176.3ZM271.274 184.182C272.408 184.182 273.346 183.804 274.088 183.048C274.83 182.278 275.208 181.34 275.208 180.234C275.208 179.142 274.83 178.218 274.088 177.448C273.346 176.678 272.408 176.3 271.274 176.3C270.126 176.3 269.174 176.678 268.432 177.448C267.69 178.204 267.326 179.128 267.326 180.234C267.326 181.34 267.69 182.278 268.432 183.048C269.174 183.804 270.126 184.182 271.274 184.182ZM273.864 180.234C273.864 180.976 273.612 181.62 273.108 182.152C272.604 182.684 271.988 182.95 271.274 182.95C270.56 182.95 269.944 182.684 269.44 182.152C268.936 181.62 268.684 180.976 268.684 180.234C268.684 179.492 268.936 178.862 269.44 178.344C269.944 177.812 270.56 177.546 271.274 177.546C271.988 177.546 272.604 177.812 273.108 178.344C273.612 178.862 273.864 179.492 273.864 180.234ZM279.933 184.182C281.935 184.182 283.153 182.978 283.153 180.976V176.496H281.823V180.934C281.823 182.166 281.123 182.936 279.933 182.936C278.757 182.936 278.057 182.166 278.057 180.934V176.496H276.713V180.976C276.713 182.936 277.973 184.182 279.933 184.182ZM286.482 184V179.842C286.482 179.17 286.678 178.624 287.056 178.19C287.448 177.756 287.952 177.546 288.554 177.546C289.688 177.546 290.472 178.372 290.472 179.828V184H291.802V179.45C291.802 178.428 291.522 177.658 290.948 177.112C290.374 176.566 289.674 176.3 288.834 176.3C287.728 176.3 286.93 176.72 286.454 177.56V176.496H285.138V184H286.482ZM298.106 182.516C297.644 182.81 297.196 182.95 296.762 182.95C295.95 182.95 295.544 182.46 295.544 181.466V177.644H298.204V176.496H295.544V173.836H294.228V176.496H292.884V177.644H294.214V181.368C294.214 183.16 295.026 184.182 296.608 184.182C297.406 184.182 298.064 183.972 298.61 183.552L298.106 182.516Z" fill="#8289A3"/>
<line opacity="0.08" x1="109.5" y1="301.5" x2="394.5" y2="301.5" stroke="#274FED" stroke-width="3" stroke-linecap="round"/>
<line x1="109.5" y1="301.5" x2="219.5" y2="301.5" stroke="#274FED" stroke-width="3" stroke-linecap="round"/>
<g filter="url(#filter1_d)">
<circle cx="221" cy="302" r="12" fill="#274FED"/>
</g>
<path d="M117.44 268V266.448H111.088V256.176H109.488V268H117.44ZM122.652 268.208C123.948 268.208 125.02 267.776 125.868 266.912C126.716 266.032 127.148 264.96 127.148 263.696C127.148 262.448 126.716 261.392 125.868 260.512C125.02 259.632 123.948 259.2 122.652 259.2C121.34 259.2 120.252 259.632 119.404 260.512C118.556 261.376 118.14 262.432 118.14 263.696C118.14 264.96 118.556 266.032 119.404 266.912C120.252 267.776 121.34 268.208 122.652 268.208ZM125.612 263.696C125.612 264.544 125.324 265.28 124.748 265.888C124.172 266.496 123.468 266.8 122.652 266.8C121.836 266.8 121.132 266.496 120.556 265.888C119.98 265.28 119.692 264.544 119.692 263.696C119.692 262.848 119.98 262.128 120.556 261.536C121.132 260.928 121.836 260.624 122.652 260.624C123.468 260.624 124.172 260.928 124.748 261.536C125.324 262.128 125.612 262.848 125.612 263.696ZM135.765 260.672C134.965 259.696 133.957 259.216 132.741 259.216C131.509 259.216 130.485 259.632 129.669 260.48C128.853 261.312 128.453 262.368 128.453 263.648C128.453 264.944 128.853 266.016 129.669 266.896C130.485 267.776 131.509 268.208 132.741 268.208C133.989 268.208 134.997 267.728 135.765 266.784V268H137.237V259.424H135.765V260.672ZM135.861 263.696C135.861 264.576 135.589 265.312 135.045 265.904C134.501 266.496 133.797 266.8 132.917 266.8C132.037 266.8 131.333 266.496 130.805 265.904C130.277 265.312 130.005 264.576 130.005 263.712C130.005 262.848 130.277 262.112 130.805 261.52C131.333 260.928 132.037 260.624 132.917 260.624C133.797 260.624 134.501 260.928 135.045 261.52C135.589 262.112 135.861 262.848 135.861 263.696ZM141.158 268V263.248C141.158 262.48 141.382 261.856 141.814 261.36C142.262 260.864 142.838 260.624 143.526 260.624C144.822 260.624 145.718 261.568 145.718 263.232V268H147.238V262.8C147.238 261.632 146.918 260.752 146.262 260.128C145.606 259.504 144.806 259.2 143.846 259.2C142.582 259.2 141.67 259.68 141.126 260.64V259.424H139.622V268H141.158ZM155.447 268H157.047V257.728H160.551V256.176H151.943V257.728H155.447V268ZM168.652 263.552C168.652 262.224 168.268 261.168 167.484 260.384C166.716 259.6 165.724 259.216 164.508 259.216C163.228 259.216 162.188 259.632 161.372 260.48C160.572 261.328 160.172 262.384 160.172 263.68C160.172 265.904 161.516 268.192 164.748 268.192C166.172 268.192 167.58 267.648 168.428 266.992L167.772 265.824C166.988 266.4 165.804 266.784 164.78 266.784C162.988 266.784 162.028 265.792 161.772 264.336H168.604C168.636 263.92 168.652 263.664 168.652 263.552ZM161.772 263.008C162.028 261.584 163.1 260.576 164.508 260.576C165.916 260.576 166.988 261.52 167.068 263.008H161.772ZM172.001 268V263.248C172.001 262.48 172.225 261.856 172.657 261.36C173.105 260.864 173.681 260.624 174.369 260.624C175.665 260.624 176.561 261.568 176.561 263.232V268H178.081V262.8C178.081 261.632 177.761 260.752 177.105 260.128C176.449 259.504 175.649 259.2 174.689 259.2C173.425 259.2 172.513 259.68 171.969 260.64V259.424H170.465V268H172.001ZM183.924 268.208C186.212 268.208 187.604 266.832 187.604 264.544V259.424H186.084V264.496C186.084 265.904 185.284 266.784 183.924 266.784C182.58 266.784 181.78 265.904 181.78 264.496V259.424H180.244V264.544C180.244 266.784 181.684 268.208 183.924 268.208ZM191.408 268V263.456C191.408 261.616 192.4 260.672 193.76 260.672C194.048 260.672 194.352 260.72 194.656 260.816L194.8 259.328C194.464 259.248 194.128 259.2 193.792 259.2C192.656 259.2 191.824 259.696 191.328 260.688V259.424H189.872V268H191.408ZM203.652 263.552C203.652 262.224 203.268 261.168 202.484 260.384C201.716 259.6 200.724 259.216 199.508 259.216C198.228 259.216 197.188 259.632 196.372 260.48C195.572 261.328 195.172 262.384 195.172 263.68C195.172 265.904 196.516 268.192 199.748 268.192C201.172 268.192 202.58 267.648 203.428 266.992L202.772 265.824C201.988 266.4 200.804 266.784 199.78 266.784C197.988 266.784 197.028 265.792 196.772 264.336H203.604C203.636 263.92 203.652 263.664 203.652 263.552ZM196.772 263.008C197.028 261.584 198.1 260.576 199.508 260.576C200.916 260.576 201.988 261.52 202.068 263.008H196.772Z" fill="#242D4F"/>
<path d="M192.124 339.322C191.2 339.322 190.5 339.602 190.01 340.162C190.192 338.748 191.046 337.824 192.348 337.824C192.95 337.824 193.538 338.006 194.098 338.37L195.246 336.424C194.308 335.794 193.3 335.472 192.208 335.472C190.682 335.472 189.408 336.158 188.68 337.236C187.952 338.3 187.56 339.672 187.56 341.142C187.504 343.9 188.932 346.112 191.69 346.126C192.838 346.126 193.776 345.79 194.49 345.132C195.204 344.46 195.568 343.62 195.568 342.626C195.568 341.66 195.246 340.876 194.588 340.26C193.944 339.63 193.118 339.322 192.124 339.322ZM191.69 343.928C190.962 343.928 190.388 343.396 190.388 342.668C190.388 341.94 190.962 341.464 191.704 341.464C192.432 341.464 192.992 341.982 192.992 342.668C192.992 343.382 192.432 343.928 191.69 343.928ZM203.121 346V341.03L205.711 344.656H206.691L209.281 341.03V346H211.871V335.654H209.925L206.215 340.974L202.491 335.654H200.559V346H203.121ZM217.378 346.21C218.624 346.21 219.646 345.818 220.416 345.034C221.2 344.25 221.592 343.284 221.592 342.136C221.592 340.988 221.2 340.022 220.416 339.238C219.646 338.44 218.624 338.048 217.378 338.048C216.132 338.048 215.124 338.44 214.34 339.238C213.57 340.022 213.178 340.988 213.178 342.136C213.178 343.284 213.57 344.25 214.34 345.034C215.124 345.818 216.132 346.21 217.378 346.21ZM217.378 343.9C216.888 343.9 216.482 343.732 216.146 343.396C215.81 343.046 215.642 342.626 215.642 342.122C215.642 341.632 215.81 341.226 216.146 340.89C216.482 340.54 216.888 340.372 217.378 340.372C217.868 340.372 218.274 340.54 218.61 340.876C218.96 341.212 219.128 341.632 219.128 342.122C219.128 342.626 218.96 343.046 218.624 343.396C218.288 343.732 217.868 343.9 217.378 343.9ZM225.262 346V341.982C225.262 340.974 225.878 340.316 226.774 340.316C227.614 340.316 228.132 340.904 228.132 341.912V346H230.61V341.254C230.61 340.232 230.316 339.434 229.742 338.888C229.168 338.342 228.454 338.062 227.628 338.062C226.508 338.062 225.584 338.622 225.206 339.35V338.272H222.798V346H225.262ZM237.361 343.592C236.913 343.83 236.507 343.942 236.143 343.942C235.485 343.942 235.163 343.536 235.163 342.71V340.316H237.585V338.272H235.163V335.528H232.713V338.272H231.509V340.316H232.685V343.004C232.685 345.132 233.637 346.196 235.555 346.196C236.479 346.196 237.305 345.986 238.019 345.566L237.361 343.592ZM241.312 346V341.968C241.312 340.974 241.928 340.316 242.824 340.316C243.664 340.316 244.182 340.904 244.182 341.912V346H246.66V341.254C246.66 340.232 246.366 339.434 245.792 338.888C245.218 338.342 244.504 338.062 243.678 338.062C242.558 338.062 241.634 338.636 241.256 339.322V335.318H238.848V346H241.312ZM251.03 346.21C252.052 346.21 252.85 345.972 253.452 345.496C254.054 345.006 254.348 344.39 254.348 343.634C254.348 342.738 253.97 342.136 253.032 341.674C252.57 341.436 251.954 341.212 251.212 341.002C250.75 340.876 250.512 340.694 250.512 340.442C250.512 340.204 250.806 340.008 251.212 340.008C251.814 340.008 252.43 340.232 253.074 340.666L254.138 339.042C253.312 338.37 252.36 338.034 251.254 338.034C250.288 338.034 249.504 338.258 248.93 338.72C248.356 339.168 248.062 339.756 248.062 340.484C248.062 341.436 248.538 342.136 249.504 342.584C249.686 342.668 250.05 342.794 250.568 342.976C251.1 343.158 251.38 343.242 251.422 343.256C251.702 343.368 251.842 343.508 251.842 343.69C251.842 344.012 251.562 344.18 251.016 344.18C250.218 344.18 249.448 343.858 248.706 343.214L247.6 344.88C248.538 345.762 249.672 346.21 251.03 346.21Z" fill="#274FED"/>
<line x1="108" y1="135" x2="146" y2="135" stroke="#242D4F" stroke-width="2"/>
<defs>
<filter id="filter0_d" x="0" y="0" width="503" height="480" filterUnits="userSpaceOnUse" color-interpolation-filters="sRGB">
<feFlood flood-opacity="0" result="BackgroundImageFix"/>
<feColorMatrix in="SourceAlpha" type="matrix" values="0 0 0 0 0 0 0 0 0 0 0 0 0 0 0 0 0 0 127 0"/>
<feMorphology radius="4" operator="dilate" in="SourceAlpha" result="effect1_dropShadow"/>
<feOffset/>
<feGaussianBlur stdDeviation="20"/>
<feColorMatrix type="matrix" values="0 0 0 0 0.0351562 0 0 0 0 0.0911853 0 0 0 0 0.3125 0 0 0 0.04 0"/>
<feBlend mode="normal" in2="BackgroundImageFix" result="effect1_dropShadow"/>
<feBlend mode="normal" in="SourceGraphic" in2="effect1_dropShadow" result="shape"/>
</filter>
<filter id="filter1_d" x="193" y="274" width="56" height="56" filterUnits="userSpaceOnUse" color-interpolation-filters="sRGB">
<feFlood flood-opacity="0" result="BackgroundImageFix"/>
<feColorMatrix in="SourceAlpha" type="matrix" values="0 0 0 0 0 0 0 0 0 0 0 0 0 0 0 0 0 0 127 0"/>
<feOffset/>
<feGaussianBlur stdDeviation="8"/>
<feColorMatrix type="matrix" values="0 0 0 0 0.152941 0 0 0 0 0.309804 0 0 0 0 0.929412 0 0 0 0.32 0"/>
<feBlend mode="normal" in2="BackgroundImageFix" result="effect1_dropShadow"/>
<feBlend mode="normal" in="SourceGraphic" in2="effect1_dropShadow" result="shape"/>
</filter>
</defs>
</svg>
