<svg width="61" height="60" viewBox="0 0 61 60" fill="none" xmlns="http://www.w3.org/2000/svg">
<rect opacity="0.04" x="0.980469" width="60" height="60" rx="8" fill="#274FED"/>
<path d="M40.9527 32.3352C40.9527 31.921 40.6169 31.5852 40.2027 31.5852C39.7885 31.5852 39.4527 31.921 39.4527 32.3352H40.9527ZM29.8852 22.5648C30.2994 22.5648 30.6352 22.229 30.6352 21.8148C30.6352 21.4006 30.2994 21.0648 29.8852 21.0648V22.5648ZM18.6749 27.3981C18.2607 27.3981 17.9249 27.7339 17.9249 28.1481C17.9249 28.5624 18.2607 28.8981 18.6749 28.8981L18.6749 27.3981ZM29.786 28.8981C30.2002 28.8981 30.536 28.5624 30.536 28.1481C30.536 27.7339 30.2002 27.3981 29.786 27.3981V28.8981ZM35.3416 23.8796C34.9274 23.8796 34.5916 24.2154 34.5916 24.6296C34.5916 25.0438 34.9274 25.3796 35.3416 25.3796V23.8796ZM39.5082 25.3796C39.9225 25.3796 40.2582 25.0438 40.2582 24.6296C40.2582 24.2154 39.9225 23.8796 39.5082 23.8796V25.3796ZM38.1749 22.5185C38.1749 22.1043 37.8391 21.7685 37.4249 21.7685C37.0107 21.7685 36.6749 22.1043 36.6749 22.5185H38.1749ZM36.6749 26.7407C36.6749 27.155 37.0107 27.4907 37.4249 27.4907C37.8391 27.4907 38.1749 27.155 38.1749 26.7407H36.6749ZM42.9805 24.6296H42.2305H42.9805ZM39.4527 32.3352V35.1852H40.9527V32.3352H39.4527ZM37.4249 37.25H20.7582V38.75H37.4249V37.25ZM18.7305 35.1852V24.6296H17.2305V35.1852H18.7305ZM20.7582 22.5648H29.8852V21.0648H20.7582V22.5648ZM20.7582 37.25C19.6477 37.25 18.7305 36.3349 18.7305 35.1852H17.2305C17.2305 37.1446 18.8006 38.75 20.7582 38.75V37.25ZM39.4527 35.1852C39.4527 36.3349 38.5355 37.25 37.4249 37.25V38.75C39.3826 38.75 40.9527 37.1446 40.9527 35.1852H39.4527ZM18.7305 24.6296C18.7305 23.4799 19.6477 22.5648 20.7582 22.5648V21.0648C18.8006 21.0648 17.2305 22.6702 17.2305 24.6296H18.7305ZM18.6749 28.8981H29.786V27.3981H18.6749L18.6749 28.8981ZM35.3416 25.3796H37.4249V23.8796H35.3416V25.3796ZM37.4249 25.3796H39.5082V23.8796H37.4249V25.3796ZM36.6749 22.5185V24.6296H38.1749V22.5185H36.6749ZM36.6749 24.6296V26.7407H38.1749V24.6296H36.6749ZM42.2305 24.6296C42.2305 25.2718 42.1056 25.9075 41.8633 26.5002L43.2518 27.0678C43.5679 26.2945 43.7305 25.466 43.7305 24.6296H42.2305ZM41.8633 26.5002C41.621 27.093 41.2662 27.6309 40.8195 28.0836L41.8871 29.1372C42.4722 28.5443 42.9357 27.8411 43.2518 27.0678L41.8633 26.5002ZM40.8195 28.0836C40.3728 28.5362 39.843 28.8948 39.2607 29.1392L39.8412 30.5223C40.6069 30.2009 41.302 29.7301 41.8871 29.1372L40.8195 28.0836ZM39.2607 29.1392C38.6784 29.3836 38.0546 29.5093 37.4249 29.5093L37.4249 31.0093C38.2544 31.0093 39.0754 30.8437 39.8412 30.5223L39.2607 29.1392ZM37.4249 29.5093C36.7952 29.5093 36.1715 29.3836 35.5892 29.1392L35.0086 30.5223C35.7744 30.8437 36.5955 31.0093 37.4249 31.0093L37.4249 29.5093ZM35.5892 29.1392C35.0068 28.8948 34.4771 28.5362 34.0304 28.0836L32.9627 29.1372C33.5478 29.7301 34.2429 30.2009 35.0086 30.5223L35.5892 29.1392ZM34.0304 28.0836C33.5837 27.6309 33.2288 27.093 32.9865 26.5002L31.598 27.0678C31.9141 27.8411 32.3777 28.5443 32.9627 29.1372L34.0304 28.0836ZM32.9865 26.5002C32.7442 25.9075 32.6194 25.2718 32.6194 24.6296H31.1194C31.1194 25.466 31.2819 26.2945 31.598 27.0678L32.9865 26.5002ZM32.6194 24.6296C32.6194 23.9875 32.7442 23.3518 32.9865 22.759L31.598 22.1915C31.2819 22.9648 31.1194 23.7932 31.1194 24.6296H32.6194ZM32.9865 22.759C33.2288 22.1663 33.5837 21.6284 34.0304 21.1757L32.9627 20.1221C32.3777 20.7149 31.9141 21.4182 31.598 22.1915L32.9865 22.759ZM34.0304 21.1757C34.4771 20.723 35.0068 20.3645 35.5892 20.1201L35.0086 18.737C34.2429 19.0584 33.5478 19.5292 32.9627 20.1221L34.0304 21.1757ZM35.5892 20.1201C36.1715 19.8757 36.7952 19.75 37.4249 19.75V18.25C36.5955 18.25 35.7744 18.4156 35.0086 18.737L35.5892 20.1201ZM37.4249 19.75C38.0546 19.75 38.6784 19.8757 39.2607 20.1201L39.8412 18.737C39.0754 18.4156 38.2544 18.25 37.4249 18.25V19.75ZM39.2607 20.1201C39.843 20.3645 40.3728 20.723 40.8195 21.1757L41.8871 20.1221C41.302 19.5292 40.6069 19.0584 39.8412 18.737L39.2607 20.1201ZM40.8195 21.1757C41.2662 21.6284 41.621 22.1663 41.8633 22.759L43.2518 22.1915C42.9357 21.4182 42.4722 20.7149 41.8871 20.1221L40.8195 21.1757ZM41.8633 22.759C42.1056 23.3518 42.2305 23.9875 42.2305 24.6296H43.7305C43.7305 23.7932 43.5679 22.9648 43.2518 22.1915L41.8633 22.759Z" fill="#274FED"/>
</svg>
