<svg width="510" height="497" viewBox="0 0 510 497" fill="none" xmlns="http://www.w3.org/2000/svg">
<rect opacity="0.04" x="45.9805" y="73" width="424" height="424" rx="4" fill="#274FED"/>
<path d="M248.364 368.201C274.435 368.201 295.57 363.529 295.57 357.766C295.57 352.003 274.435 347.331 248.364 347.331C222.293 347.331 201.158 352.003 201.158 357.766C201.158 363.529 222.293 368.201 248.364 368.201Z" fill="black"/>
<path d="M248.364 357.766L221.848 440.757" stroke="black" stroke-width="4" stroke-miterlimit="10" stroke-linecap="round"/>
<path d="M248.363 357.766L274.88 440.757" stroke="black" stroke-width="4" stroke-miterlimit="10" stroke-linecap="round"/>
<path d="M230.555 413.507L260.115 394.553" stroke="black" stroke-width="2" stroke-miterlimit="10" stroke-linecap="round"/>
<path d="M236.492 394.553L266.06 413.507" stroke="black" stroke-width="2" stroke-miterlimit="10" stroke-linecap="round"/>
<path d="M294.822 267.931C294.702 271.611 294.754 284.499 294.148 290.012" stroke="#1F161E" stroke-miterlimit="10" stroke-linecap="round"/>
<path d="M142.956 104.942C142.956 102.327 140.836 100.207 138.221 100.207C135.606 100.207 133.486 102.327 133.486 104.942V121.286C133.486 123.901 135.606 126.021 138.221 126.021C140.836 126.021 142.956 123.901 142.956 121.286V104.942Z" fill="black"/>
<path d="M138.222 153.495C143.469 153.495 147.722 149.242 147.722 143.995C147.722 138.749 143.469 134.496 138.222 134.496C132.976 134.496 128.723 138.749 128.723 143.995C128.723 149.242 132.976 153.495 138.222 153.495Z" fill="#E1E2FF"/>
<path d="M65.8687 322.64C80.0805 325.333 77.5448 410.156 50.2655 405.025C24.5047 400.133 48.5302 319.341 65.8687 322.64Z" fill="black"/>
<path d="M3.47074 333.112C14.7804 326.709 62.1208 386.28 40.4664 398.532C20.0089 410.156 -10.2998 340.921 3.47074 333.112Z" fill="#A7A8CC"/>
<path d="M61.1033 446H32.5449C31.3946 446 30.2848 445.575 29.4279 444.808C28.5709 444.041 28.0269 442.984 27.8999 441.841L24.2946 409.468C24.2164 408.811 24.2782 408.145 24.4758 407.514C24.6735 406.883 25.0026 406.301 25.4414 405.807C25.8802 405.312 26.4189 404.916 27.0218 404.645C27.6247 404.373 28.2783 404.232 28.9396 404.232H64.559C65.2149 404.232 65.8635 404.371 66.4624 404.638C67.0613 404.906 67.5973 405.296 68.0354 405.784C68.4735 406.273 68.8039 406.847 69.0053 407.472C69.2066 408.096 69.2743 408.756 69.204 409.408L65.7558 441.781C65.6409 442.936 65.1013 444.007 64.2417 444.786C63.382 445.566 62.2636 445.998 61.1033 446Z" fill="#969696"/>
<path d="M73.8938 289.608C84.7172 292.75 76.422 358.222 55.6951 352.193C36.1276 346.509 60.7216 285.779 73.8938 289.608Z" fill="#8489FF"/>
<path d="M91.7412 341.699C99.2211 348.147 68.7928 397.47 54.4164 385.083C40.8403 373.437 82.6082 333.86 91.7412 341.699Z" fill="#A7A8CC"/>
<path d="M46.8988 296.415C63.1003 296.415 77.933 399.863 46.8988 399.863C17.5924 399.863 27.1742 296.415 46.8988 296.415Z" fill="#4A7BF7"/>
<path d="M75.3311 397.23H18.3341C16.661 397.23 15.3047 398.587 15.3047 400.26V405.78C15.3047 407.453 16.661 408.81 18.3341 408.81H75.3311C77.0042 408.81 78.3604 407.453 78.3604 405.78V400.26C78.3604 398.587 77.0042 397.23 75.3311 397.23Z" fill="#D8D8D8"/>
<g opacity="0.4">
<path d="M436.833 186.99H398.266C397.015 186.99 396 188.005 396 189.257V201.853C396 203.105 397.015 204.119 398.266 204.119H436.833C438.085 204.119 439.099 203.105 439.099 201.853V189.257C439.099 188.005 438.085 186.99 436.833 186.99Z" fill="#274FED"/>
<path d="M417.542 215.863L422.733 200.14H412.351L417.542 215.863Z" fill="#274FED"/>
</g>
<path d="M407.258 191.553L402.904 199.085H411.603L407.258 191.553Z" fill="white"/>
<path d="M427.834 199.085L432.187 191.553H423.48L427.834 199.085Z" fill="white"/>
<path d="M417.542 198.592C419.347 198.592 420.811 197.128 420.811 195.323C420.811 193.518 419.347 192.054 417.542 192.054C415.737 192.054 414.273 193.518 414.273 195.323C414.273 197.128 415.737 198.592 417.542 198.592Z" fill="white"/>
<path d="M407.177 119.69H381.865C380.77 119.69 379.883 120.577 379.883 121.672V136.976C379.883 138.071 380.77 138.958 381.865 138.958H407.177C408.272 138.958 409.159 138.071 409.159 136.976V121.672C409.159 120.577 408.272 119.69 407.177 119.69Z" fill="#E4EAFF"/>
<path d="M380.803 120.296L394.521 129.324L409.159 119.69" stroke="#B7CBFF" stroke-width="0.82" stroke-linecap="round" stroke-linejoin="round"/>
<path d="M410 125C412.761 125 415 122.761 415 120C415 117.239 412.761 115 410 115C407.239 115 405 117.239 405 120C405 122.761 407.239 125 410 125Z" fill="#274FED"/>
<path d="M410.546 122.845H409.883V118.45L408.553 118.938V118.34L410.442 117.63H410.546V122.845Z" fill="white"/>
<path d="M355.783 158H328.474C323.517 158 319.498 162.019 319.498 166.976V180.298C319.498 185.255 323.517 189.274 328.474 189.274H355.783C360.74 189.274 364.759 185.255 364.759 180.298V166.976C364.759 162.019 360.74 158 355.783 158Z" fill="#E3E9FF"/>
<path d="M335.668 163.034H328.861V184.24H335.668V163.034Z" fill="#8489FF"/>
<path d="M345.535 177.141H338.729V184.247H345.535V177.141Z" fill="#8489FF"/>
<path d="M355.395 171.157H348.588V184.24H355.395V171.157Z" fill="#8489FF"/>
<path d="M138.22 115.354C134.459 115.353 130.733 116.093 127.258 117.532C123.782 118.971 120.624 121.081 117.964 123.74C115.303 126.4 113.193 129.558 111.753 133.033C110.313 136.508 109.572 140.233 109.572 143.995H166.868C166.868 140.233 166.127 136.508 164.688 133.033C163.248 129.558 161.138 126.4 158.477 123.74C155.817 121.081 152.659 118.971 149.183 117.532C145.707 116.093 141.982 115.353 138.22 115.354Z" fill="#8489FF"/>
<path d="M138.223 105.66V1.74805" stroke="black" stroke-width="2" stroke-linecap="round" stroke-linejoin="round"/>
<path d="M362.919 430.861C362.919 432.633 361.879 443.816 363.951 444.848C366.023 445.88 388.8 446.509 389.832 445.469C390.864 444.429 391.485 442.26 390.58 441.639C389.675 441.018 380.856 439.261 379.659 438.43C378.462 437.6 376.809 433.194 377.415 430.861" fill="#1F161E"/>
<path d="M294.822 284.679L307.642 280.079C307.089 256.689 301.621 204.426 293.857 196.654C292.032 194.837 255.934 191.665 249.494 191.665C211.062 191.665 199.662 196.048 196.768 198.951C187.792 207.927 184.994 249.516 184.994 264.079C184.994 278.643 226.134 286.197 226.134 286.197L274.357 289.511C274.357 289.511 284.933 290.603 294.081 291.142C294.283 288.337 294.822 284.679 294.822 284.679Z" fill="white"/>
<path d="M333.021 298.24C336.53 297.2 371.416 291.508 379.016 298.988C386.615 306.468 410.536 413.709 410.536 416.177H391.275L365.275 360.219" fill="#1F161E"/>
<path d="M206.005 288.703C205.129 293.079 199.871 297.776 199.871 321.615C199.871 354.58 226.874 355.275 236.568 355.275C266.772 355.275 315.638 346.299 318.937 344.654C321.128 348.319 361.467 430.674 361.654 432.514H380.227C380.227 432.514 368.715 309.303 347.944 295.33C341.197 290.842 221.496 286.04 206.005 288.703Z" fill="#5459CC"/>
<path d="M314.764 264.603C309.887 264.603 305.862 265.762 294.822 267.931L294.246 289.055C304.718 284.836 307.149 278.972 310.186 278.972C317.77 278.972 321.735 282.884 326.215 282.884C329.342 282.884 334.967 280.43 334.967 277.094C334.967 270.108 320.807 264.603 314.764 264.603Z" fill="#B88067"/>
<path d="M392.366 414.696C392.366 416.477 391.327 427.652 393.399 428.691C395.471 429.731 418.247 430.344 419.279 429.312C420.311 428.28 420.932 426.103 420.027 425.482C419.122 424.862 410.303 423.096 409.106 422.266C407.91 421.436 406.257 417.03 406.862 414.696" fill="#1F161E"/>
<path d="M256.292 196.639C256.292 199.459 239.918 199.542 239.918 196.639V173.706H256.292V196.639Z" fill="#C5917A"/>
<path d="M250.958 181.268C249.462 181.268 239.918 185.487 239.918 187.843V175.396C242.297 175.396 250.958 181.268 250.958 181.268Z" fill="#1F161E"/>
<path d="M254.123 182.24C265.07 182.24 273.944 173.366 273.944 162.418C273.944 151.471 265.07 142.596 254.123 142.596C243.175 142.596 234.301 151.471 234.301 162.418C234.301 173.366 243.175 182.24 254.123 182.24Z" fill="#C5917A"/>
<path d="M274.58 146.86C272.126 150.757 266.995 152.545 261.437 152.545C256.703 152.545 249.806 151.168 244.899 153.966C242.244 155.462 239.2 158.865 238.586 165.68C238.586 166.847 237.262 171.372 237.262 172.831C237.262 173.825 236.14 174.476 234.27 174.476C233.305 174.476 231.398 172.913 231.398 170.527C231.398 167.767 232.498 166.787 232.498 164.445C232.498 162.104 229.633 159.853 229.633 153.345C229.633 143.973 235.617 138.198 239.85 138.198C243.71 138.198 244.922 139.096 245.408 139.477C245.408 130.958 256.628 127.068 261.078 127.068C266.165 127.068 268.558 129.155 268.558 131.81C268.558 136.044 266.539 139.642 265.514 140.45C267.834 138.363 270.846 137.214 273.966 137.226C279.793 137.226 281.753 141.056 281.753 143.674C281.753 149.366 274.924 154.639 272.381 154.639C271.741 153.286 270.99 151.987 270.137 150.757" fill="#1F161E"/>
<path d="M239.201 169.263C241.535 169.263 243.427 167.37 243.427 165.036C243.427 162.702 241.535 160.81 239.201 160.81C236.867 160.81 234.975 162.702 234.975 165.036C234.975 167.37 236.867 169.263 239.201 169.263Z" fill="#C5917A"/>
<path d="M274.139 166.054C275.949 166.054 277.416 165.29 277.416 164.348C277.416 163.406 275.949 162.643 274.139 162.643C272.33 162.643 270.863 163.406 270.863 164.348C270.863 165.29 272.33 166.054 274.139 166.054Z" fill="#B37A61"/>
<path d="M253.532 166.054C255.341 166.054 256.808 165.29 256.808 164.348C256.808 163.406 255.341 162.643 253.532 162.643C251.723 162.643 250.256 163.406 250.256 164.348C250.256 165.29 251.723 166.054 253.532 166.054Z" fill="#B37A61"/>
<path d="M266.137 160.81C266.75 161.685 269.877 165.358 266.578 166.847" stroke="#1F161E" stroke-miterlimit="10" stroke-linecap="round"/>
<path d="M259.972 171.133C258.985 171.133 257.466 169.906 256.666 168.806" stroke="#1F161E" stroke-miterlimit="10" stroke-linecap="round"/>
<path d="M286.107 224.368C287.603 227.547 294.822 258.215 294.822 267.931" stroke="#1F161E" stroke-miterlimit="10" stroke-linecap="round"/>
<path d="M184.994 261.611C184.994 296.086 185.316 306.087 199.154 306.087C231.048 306.087 279.264 279.907 287.858 279.907C295.45 279.907 299.415 283.826 303.895 283.826C307.014 283.826 312.639 281.365 312.639 278.037C312.639 271.043 298.48 265.538 292.443 265.538C278.852 265.538 224.615 278.643 223.291 278.643C221.967 278.643 219.738 278.067 219.738 275.838C219.738 271.791 222.386 262.441 222.73 261.626L184.994 261.611Z" fill="#C5917A"/>
<path d="M230.696 231.541C229.784 234.166 222.67 261.296 221.848 264.603" stroke="#1F161E" stroke-miterlimit="10" stroke-linecap="round"/>
<path d="M500.749 441.382C501.287 443.428 503.381 444.65 505.427 444.113C507.473 443.575 508.695 441.48 508.157 439.435L469.861 293.768C469.323 291.722 467.229 290.5 465.183 291.038C463.138 291.575 461.915 293.67 462.453 295.715L500.749 441.382Z" fill="#969696"/>
<path d="M462.073 295.721C462.61 293.676 461.388 291.582 459.343 291.044C457.297 290.506 455.203 291.728 454.665 293.774L416.369 439.441C415.831 441.487 417.053 443.581 419.099 444.119C421.144 444.657 423.239 443.434 423.776 441.389L462.073 295.721Z" fill="#969696"/>
<path d="M409.229 295.721C409.767 293.675 408.544 291.581 406.499 291.043C404.453 290.505 402.359 291.727 401.821 293.773L363.525 439.44C362.987 441.486 364.209 443.58 366.255 444.118C368.301 444.656 370.395 443.433 370.933 441.388L409.229 295.721Z" fill="#D8D8D8"/>
<path d="M447.24 438.694C447.769 440.745 449.86 441.98 451.912 441.451C453.964 440.922 455.198 438.831 454.67 436.779L417.016 290.68C416.487 288.628 414.395 287.394 412.343 287.923C410.292 288.452 409.057 290.543 409.586 292.595L447.24 438.694Z" fill="#D8D8D8"/>
<path d="M193.491 295.724C194.028 293.679 192.806 291.585 190.76 291.047C188.715 290.509 186.621 291.731 186.083 293.777L147.787 439.444C147.249 441.49 148.471 443.584 150.517 444.122C152.562 444.66 154.657 443.437 155.194 441.392L193.491 295.724Z" fill="#969696"/>
<path d="M231.517 441.392C232.055 443.437 234.149 444.66 236.195 444.122C238.24 443.584 239.462 441.49 238.925 439.444L200.628 293.777C200.091 291.732 197.996 290.509 195.951 291.047C193.905 291.585 192.683 293.679 193.221 295.725L231.517 441.392Z" fill="#969696"/>
<path d="M485.649 283.849H115.265C113.394 283.849 111.877 285.366 111.877 287.237V291.792C111.877 293.664 113.394 295.181 115.265 295.181H485.649C487.52 295.181 489.037 293.664 489.037 291.792V287.237C489.037 285.366 487.52 283.849 485.649 283.849Z" fill="#D8D8D8"/>
<path d="M138.758 295.727C139.296 293.681 138.074 291.587 136.028 291.049C133.982 290.511 131.888 291.733 131.35 293.779L93.0542 439.446C92.5164 441.492 93.7387 443.586 95.7843 444.124C97.8299 444.662 99.9241 443.439 100.462 441.394L138.758 295.727Z" fill="#D8D8D8"/>
<path d="M176.783 441.392C177.32 443.438 179.415 444.66 181.46 444.122C183.506 443.584 184.728 441.49 184.19 439.445L145.894 293.777C145.356 291.732 143.262 290.509 141.216 291.047C139.171 291.585 137.949 293.679 138.486 295.725L176.783 441.392Z" fill="#D8D8D8"/>
<path d="M389.166 283.849H319.969L332.505 240.734C332.818 239.694 333.46 238.783 334.333 238.137C335.207 237.491 336.266 237.145 337.352 237.151H396.069C396.841 237.139 397.604 237.307 398.299 237.641C398.994 237.976 399.601 238.469 400.072 239.08C400.543 239.691 400.864 240.403 401.011 241.161C401.157 241.918 401.125 242.699 400.916 243.442L389.166 283.849Z" fill="black"/>
<path d="M363.062 264.73C365.4 264.73 367.295 262.834 367.295 260.496C367.295 258.158 365.4 256.262 363.062 256.262C360.724 256.262 358.828 258.158 358.828 260.496C358.828 262.834 360.724 264.73 363.062 264.73Z" fill="white"/>
<path d="M328.189 280.819H279.637V283.849H328.189V280.819Z" fill="black"/>
</svg>
