<svg width="61" height="60" viewBox="0 0 61 60" fill="none" xmlns="http://www.w3.org/2000/svg">
<rect opacity="0.04" x="0.980469" width="60" height="60" rx="8" fill="#274FED"/>
<path d="M36.9805 39V37C36.9805 35.9391 36.559 34.9217 35.8089 34.1716C35.0588 33.4214 34.0413 33 32.9805 33H24.9805C23.9196 33 22.9022 33.4214 22.152 34.1716C21.4019 34.9217 20.9805 35.9391 20.9805 37V39M42.9805 39V37C42.9798 36.1137 42.6848 35.2528 42.1418 34.5523C41.5988 33.8519 40.8386 33.3516 39.9805 33.13M35.9805 21.13C36.8409 21.3503 37.6035 21.8507 38.1481 22.5523C38.6927 23.2539 38.9883 24.1168 38.9883 25.005C38.9883 25.8932 38.6927 26.7561 38.1481 27.4577C37.6035 28.1593 36.8409 28.6597 35.9805 28.88M32.9805 25C32.9805 27.2091 31.1896 29 28.9805 29C26.7713 29 24.9805 27.2091 24.9805 25C24.9805 22.7909 26.7713 21 28.9805 21C31.1896 21 32.9805 22.7909 32.9805 25Z" stroke="#274FED" stroke-width="1.6" stroke-linecap="round" stroke-linejoin="round"/>
<path d="M44.4805 15L44.4805 20M46.9805 17.5L41.9805 17.5" stroke="#274FED" stroke-width="1.5" stroke-linecap="round" stroke-linejoin="round"/>
</svg>
