<svg width="61" height="60" viewBox="0 0 61 60" fill="none" xmlns="http://www.w3.org/2000/svg">
<rect opacity="0.04" x="0.980469" width="60" height="60" rx="8" fill="#274FED"/>
<path d="M27.0916 26.725H32.8694M27.0916 30.325H32.8694M27.0916 33.925H30.2027M25.9805 19.5V19C25.9805 18.4477 26.4282 18 26.9805 18H40.9805C41.5328 18 41.9805 18.4477 41.9805 19V34C41.9805 34.824 41.0397 35.2944 40.3805 34.8L39.9805 34.5M34.506 37.854L36.455 39.0578C37.1212 39.4693 37.9805 38.99 37.9805 38.207V23C37.9805 22.4477 37.5328 22 36.9805 22H22.9805C22.4282 22 21.9805 22.4477 21.9805 23V38.207C21.9805 38.99 22.8397 39.4693 23.506 39.0578L25.455 37.854C25.7771 37.655 26.1839 37.655 26.506 37.854L29.455 39.6754C29.7771 39.8744 30.1839 39.8744 30.506 39.6754L33.455 37.854C33.7771 37.655 34.1839 37.655 34.506 37.854Z" stroke="#274FED" stroke-width="1.5" stroke-linecap="round" stroke-linejoin="round"/>
</svg>
