<svg width="18" height="20" viewBox="0 0 18 20" fill="none" xmlns="http://www.w3.org/2000/svg">
<path d="M6.11111 5.725H11.8889M6.11111 9.325H11.8889M6.11111 12.925H9.22222M13.5255 16.854L15.4745 18.0578C16.1407 18.4693 17 17.99 17 17.207V2C17 1.44772 16.5523 1 16 1H2C1.44772 1 1 1.44772 1 2V17.207C1 17.99 1.85927 18.4693 2.52549 18.0578L4.47451 16.854C4.79659 16.655 5.20341 16.655 5.52549 16.854L8.47451 18.6754C8.79659 18.8744 9.20341 18.8744 9.52549 18.6754L12.4745 16.854C12.7966 16.655 13.2034 16.655 13.5255 16.854Z" stroke="#274FED" stroke-width="1.5" stroke-linecap="round" stroke-linejoin="round"/>
</svg>
