<svg width="24" height="19" viewBox="0 0 24 19" fill="none" xmlns="http://www.w3.org/2000/svg">
<path d="M1 1V17.3929C1 17.5539 1.08278 17.7083 1.23013 17.8222C1.37748 17.936 1.57733 18 1.78571 18H23M5.55172 8.3913H7.06897C7.48794 8.3913 7.82759 8.70154 7.82759 9.08424V14.3505C7.82759 14.7332 7.48794 15.0435 7.06897 15.0435H5.55172C5.13275 15.0435 4.7931 14.7332 4.7931 14.3505V9.08424C4.7931 8.70154 5.13275 8.3913 5.55172 8.3913ZM11.6207 6.17391H13.1379C13.5569 6.17391 13.8966 6.50483 13.8966 6.91304V14.3043C13.8966 14.7126 13.5569 15.0435 13.1379 15.0435H11.6207C11.2017 15.0435 10.8621 14.7126 10.8621 14.3043V6.91304C10.8621 6.50483 11.2017 6.17391 11.6207 6.17391ZM17.6897 3.95652H19.2069C19.6259 3.95652 19.9655 4.28309 19.9655 4.68593V14.3141C19.9655 14.7169 19.6259 15.0435 19.2069 15.0435H17.6897C17.2707 15.0435 16.931 14.7169 16.931 14.3141V4.68593C16.931 4.28309 17.2707 3.95652 17.6897 3.95652Z" stroke="#274FED" stroke-width="1.5" stroke-linecap="round" stroke-linejoin="round"/>
</svg>
