<svg width="23" height="23" viewBox="0 0 23 23" fill="none" xmlns="http://www.w3.org/2000/svg">
<circle opacity="0.04" cx="11.5" cy="11.5" r="11.5" fill="black"/>
<path d="M12.0868 13.9179H10.8215L10.723 6H12.1929L12.0868 13.9179ZM10.6699 16.3274C10.6699 16.1001 10.7381 15.9106 10.8745 15.7591C11.0159 15.6025 11.223 15.5242 11.4958 15.5242C11.7686 15.5242 11.9757 15.6025 12.1171 15.7591C12.2586 15.9106 12.3293 16.1001 12.3293 16.3274C12.3293 16.5547 12.2586 16.7441 12.1171 16.8956C11.9757 17.0421 11.7686 17.1154 11.4958 17.1154C11.223 17.1154 11.0159 17.0421 10.8745 16.8956C10.7381 16.7441 10.6699 16.5547 10.6699 16.3274Z" fill="black"/>
</svg>
